<svg xmlns="http://www.w3.org/2000/svg" id="comp_Indonesia" viewBox="0 0 800 353"><defs><style>.cls-2{fill:#f8f9fa}</style></defs><path d="M0 0h800v353H0z" style="fill:#0d6efd"/><path d="M446.86 60.76a2.61 2.61 0 1 0-2.61-2.61 2.61 2.61 0 0 0 2.61 2.61Zm10.56 0a2.61 2.61 0 1 0-2.62-2.61 2.61 2.61 0 0 0 2.62 2.61Zm-10.56 10.55a2.61 2.61 0 1 0-2.61-2.61 2.61 2.61 0 0 0 2.61 2.61Zm10.56 0a2.61 2.61 0 1 0-2.62-2.61 2.61 2.61 0 0 0 2.62 2.61ZM109.18 81.86a2.61 2.61 0 1 0-2.61-2.61 2.61 2.61 0 0 0 2.61 2.61Zm10.55 0a2.61 2.61 0 1 0-2.61-2.61 2.61 2.61 0 0 0 2.61 2.61Zm10.55 0a2.61 2.61 0 1 0-2.61-2.61 2.61 2.61 0 0 0 2.61 2.61Zm10.56 0a2.61 2.61 0 1 0-2.62-2.61 2.61 2.61 0 0 0 2.62 2.61Zm10.55 0a2.61 2.61 0 1 0-2.61-2.61 2.61 2.61 0 0 0 2.61 2.61Zm274.37 0a2.61 2.61 0 1 0-2.61-2.61 2.61 2.61 0 0 0 2.61 2.61Zm10.55 0a2.61 2.61 0 1 0-2.61-2.61 2.61 2.61 0 0 0 2.61 2.61ZM109.18 92.42a2.62 2.62 0 1 0-2.61-2.62 2.61 2.61 0 0 0 2.61 2.62Zm10.55 0a2.62 2.62 0 1 0-2.61-2.62 2.61 2.61 0 0 0 2.61 2.62Zm10.55 0a2.62 2.62 0 1 0-2.61-2.62 2.61 2.61 0 0 0 2.61 2.62Zm10.56 0a2.62 2.62 0 1 0-2.62-2.62 2.61 2.61 0 0 0 2.62 2.62Zm10.55 0a2.62 2.62 0 1 0-2.61-2.62 2.61 2.61 0 0 0 2.61 2.62Zm10.55 0a2.62 2.62 0 1 0-2.61-2.62 2.61 2.61 0 0 0 2.61 2.62Zm116.06 0a2.62 2.62 0 1 0-2.61-2.62 2.61 2.61 0 0 0 2.61 2.62Zm10.57 0a2.62 2.62 0 1 0-2.61-2.62 2.61 2.61 0 0 0 2.61 2.62Zm94.98 0a2.62 2.62 0 1 0-2.61-2.62 2.61 2.61 0 0 0 2.61 2.62Zm10.55 0a2.62 2.62 0 1 0-2.61-2.62 2.61 2.61 0 0 0 2.61 2.62Zm10.55 0a2.62 2.62 0 1 0-2.61-2.62 2.61 2.61 0 0 0 2.61 2.62Zm10.56 0a2.62 2.62 0 1 0-2.62-2.62 2.61 2.61 0 0 0 2.62 2.62Zm10.55 0a2.62 2.62 0 1 0-2.61-2.62 2.61 2.61 0 0 0 2.61 2.62Zm94.97 0a2.62 2.62 0 1 0-2.61-2.62 2.61 2.61 0 0 0 2.61 2.62Zm10.55 0a2.62 2.62 0 1 0-2.61-2.62 2.62 2.62 0 0 0 2.61 2.62Zm-401 10.53a2.61 2.61 0 1 0-2.61-2.61 2.61 2.61 0 0 0 2.61 2.61Zm10.56 0a2.61 2.61 0 1 0-2.62-2.61 2.61 2.61 0 0 0 2.62 2.61Zm10.55 0a2.61 2.61 0 1 0-2.61-2.61 2.61 2.61 0 0 0 2.61 2.61Zm10.55 0a2.61 2.61 0 1 0-2.61-2.61 2.61 2.61 0 0 0 2.61 2.61Zm10.55 0a2.61 2.61 0 1 0-2.61-2.61 2.61 2.61 0 0 0 2.61 2.61Zm84.43 0a2.61 2.61 0 1 0-2.62-2.61 2.61 2.61 0 0 0 2.62 2.61Zm31.65 0a2.61 2.61 0 1 0-2.61-2.61 2.61 2.61 0 0 0 2.61 2.61Zm94.98 0a2.61 2.61 0 1 0-2.61-2.61 2.61 2.61 0 0 0 2.61 2.61Zm10.55 0a2.61 2.61 0 1 0-2.61-2.61 2.61 2.61 0 0 0 2.61 2.61Zm10.55 0a2.61 2.61 0 1 0-2.61-2.61 2.61 2.61 0 0 0 2.61 2.61Zm105.53 0a2.61 2.61 0 1 0-2.61-2.61 2.61 2.61 0 0 0 2.61 2.61Zm10.55 0a2.61 2.61 0 1 0-2.61-2.61 2.61 2.61 0 0 0 2.61 2.61Zm10.55 0a2.61 2.61 0 1 0-2.61-2.61 2.61 2.61 0 0 0 2.61 2.61Zm-422.1 10.57a2.61 2.61 0 1 0-2.61-2.61 2.61 2.61 0 0 0 2.61 2.61Zm10.55 0a2.61 2.61 0 1 0-2.61-2.61 2.61 2.61 0 0 0 2.61 2.61Zm10.55 0a2.61 2.61 0 1 0-2.61-2.61 2.61 2.61 0 0 0 2.61 2.61Zm10.56 0a2.61 2.61 0 1 0-2.62-2.61 2.61 2.61 0 0 0 2.62 2.61Zm10.55 0a2.61 2.61 0 1 0-2.61-2.61 2.61 2.61 0 0 0 2.61 2.61Zm10.55 0a2.61 2.61 0 1 0-2.61-2.61 2.61 2.61 0 0 0 2.61 2.61Zm10.55 0a2.61 2.61 0 1 0-2.61-2.61 2.61 2.61 0 0 0 2.61 2.61Zm10.56 0a2.61 2.61 0 1 0-2.62-2.61 2.61 2.61 0 0 0 2.62 2.61Zm10.55 0a2.61 2.61 0 1 0-2.6-2.57 2.61 2.61 0 0 0 2.6 2.57Zm52.76 0a2.61 2.61 0 1 0-2.61-2.61 2.61 2.61 0 0 0 2.61 2.61Zm10.56 0a2.61 2.61 0 1 0-2.62-2.57 2.61 2.61 0 0 0 2.62 2.57Zm116.08 0a2.61 2.61 0 1 0-2.61-2.61 2.61 2.61 0 0 0 2.61 2.61Zm10.55 0a2.61 2.61 0 1 0-2.61-2.61 2.61 2.61 0 0 0 2.61 2.61Zm10.55 0a2.61 2.61 0 1 0-2.61-2.61 2.61 2.61 0 0 0 2.61 2.61Zm10.55 0a2.61 2.61 0 1 0-2.65-2.57 2.61 2.61 0 0 0 2.65 2.57Zm10.56 0a2.61 2.61 0 1 0-2.62-2.61 2.61 2.61 0 0 0 2.62 2.61Zm137.18 0a2.61 2.61 0 1 0-2.61-2.61 2.61 2.61 0 0 0 2.61 2.61Zm-411.55 10.55a2.61 2.61 0 1 0-2.62-2.61 2.61 2.61 0 0 0 2.62 2.61Zm10.55 0a2.61 2.61 0 1 0-2.61-2.61 2.61 2.61 0 0 0 2.61 2.61Zm10.55 0a2.61 2.61 0 1 0-2.61-2.61 2.61 2.61 0 0 0 2.61 2.61Z" class="cls-2"/><circle cx="172.49" cy="121.46" r="2.61" class="cls-2"/><path d="M183.05 124.07a2.61 2.61 0 1 0-2.62-2.61 2.61 2.61 0 0 0 2.62 2.61Zm10.55 0a2.61 2.61 0 1 0-2.61-2.61 2.61 2.61 0 0 0 2.61 2.61Zm10.55 0a2.61 2.61 0 1 0-2.61-2.61 2.61 2.61 0 0 0 2.61 2.61Zm94.98 0a2.61 2.61 0 1 0-2.62-2.61 2.61 2.61 0 0 0 2.62 2.61Z" class="cls-2"/><circle cx="309.68" cy="121.46" r="2.61" class="cls-2"/><path d="M341.34 124.07a2.61 2.61 0 1 0-2.62-2.61 2.61 2.61 0 0 0 2.62 2.61Zm10.55 0a2.61 2.61 0 1 0-2.61-2.61 2.61 2.61 0 0 0 2.61 2.61Zm10.55 0a2.61 2.61 0 1 0-2.61-2.61 2.61 2.61 0 0 0 2.61 2.61Zm10.56 0a2.61 2.61 0 1 0-2.61-2.61 2.61 2.61 0 0 0 2.61 2.61Zm10.55 0a2.61 2.61 0 1 0-2.61-2.61 2.61 2.61 0 0 0 2.61 2.61Zm10.55 0a2.61 2.61 0 1 0-2.61-2.61 2.61 2.61 0 0 0 2.61 2.61Zm10.55 0a2.61 2.61 0 1 0-2.61-2.61 2.61 2.61 0 0 0 2.61 2.61Zm10.56 0a2.61 2.61 0 1 0-2.62-2.61 2.61 2.61 0 0 0 2.62 2.61Zm84.41 0a2.61 2.61 0 1 0-2.61-2.61 2.61 2.61 0 0 0 2.61 2.61Zm10.56 0a2.61 2.61 0 1 0-2.61-2.61 2.61 2.61 0 0 0 2.61 2.61Z" class="cls-2"/><circle cx="541.84" cy="121.46" r="2.61" class="cls-2"/><circle cx="552.39" cy="352.51" r="2.61" class="cls-2" transform="rotate(-89.84 436.526 236.988)"/><path d="M140.84 134.63a2.62 2.62 0 1 0-2.62-2.61 2.61 2.61 0 0 0 2.62 2.61Zm10.55 0a2.62 2.62 0 1 0-2.61-2.61 2.61 2.61 0 0 0 2.61 2.61Zm10.55 0a2.62 2.62 0 1 0-2.61-2.61 2.61 2.61 0 0 0 2.61 2.61Zm10.55 0a2.62 2.62 0 1 0-2.61-2.61 2.61 2.61 0 0 0 2.61 2.61Zm10.56 0a2.62 2.62 0 1 0-2.62-2.61 2.61 2.61 0 0 0 2.62 2.61Zm10.55 0a2.62 2.62 0 1 0-2.61-2.61 2.61 2.61 0 0 0 2.61 2.61Zm10.55 0a2.62 2.62 0 1 0-2.61-2.61 2.61 2.61 0 0 0 2.61 2.61Zm10.55 0a2.62 2.62 0 1 0-2.61-2.61 2.61 2.61 0 0 0 2.61 2.61Zm10.56 0a2.62 2.62 0 1 0-2.61-2.61 2.61 2.61 0 0 0 2.61 2.61Zm10.55 0a2.62 2.62 0 1 0-2.61-2.61 2.61 2.61 0 0 0 2.61 2.61Zm63.32 0a2.62 2.62 0 1 0-2.62-2.61 2.61 2.61 0 0 0 2.62 2.61Zm10.55 0a2.62 2.62 0 1 0-2.61-2.61 2.61 2.61 0 0 0 2.61 2.61Zm10.55 0a2.62 2.62 0 1 0-2.61-2.61 2.61 2.61 0 0 0 2.61 2.61Zm10.55 0a2.62 2.62 0 1 0-2.61-2.61 2.61 2.61 0 0 0 2.61 2.61Zm10.56 0a2.62 2.62 0 1 0-2.62-2.61 2.61 2.61 0 0 0 2.62 2.61Zm10.55 0a2.62 2.62 0 1 0-2.61-2.61 2.61 2.61 0 0 0 2.61 2.61Zm10.55 0a2.62 2.62 0 1 0-2.61-2.61 2.61 2.61 0 0 0 2.61 2.61Zm10.56 0a2.62 2.62 0 1 0-2.61-2.61 2.61 2.61 0 0 0 2.61 2.61Zm10.55 0a2.62 2.62 0 1 0-2.61-2.61 2.61 2.61 0 0 0 2.61 2.61Zm10.55 0a2.62 2.62 0 1 0-2.61-2.61 2.61 2.61 0 0 0 2.61 2.61Zm10.55 0a2.62 2.62 0 1 0-2.61-2.61 2.61 2.61 0 0 0 2.61 2.61Zm10.56 0a2.62 2.62 0 1 0-2.62-2.61 2.61 2.61 0 0 0 2.62 2.61Zm10.55 0a2.62 2.62 0 1 0-2.61-2.61 2.61 2.61 0 0 0 2.61 2.61Zm10.55 0a2.62 2.62 0 1 0-2.61-2.61 2.61 2.61 0 0 0 2.61 2.61Zm10.55 0a2.62 2.62 0 1 0-2.61-2.61 2.61 2.61 0 0 0 2.61 2.61Zm10.56 0a2.62 2.62 0 1 0-2.62-2.61 2.61 2.61 0 0 0 2.62 2.61Zm10.58 0a2.62 2.62 0 1 0-2.61-2.61 2.61 2.61 0 0 0 2.61 2.61Zm10.52 0a2.62 2.62 0 1 0-2.61-2.61 2.61 2.61 0 0 0 2.61 2.61Zm10.55 0a2.62 2.62 0 1 0-2.61-2.61 2.61 2.61 0 0 0 2.61 2.61Zm10.55 0a2.62 2.62 0 1 0-2.61-2.61 2.61 2.61 0 0 0 2.61 2.61Zm10.56 0a2.62 2.62 0 1 0-2.61-2.61 2.61 2.61 0 0 0 2.61 2.61Zm21.1 0a2.62 2.62 0 1 0-2.61-2.61 2.61 2.61 0 0 0 2.61 2.61Zm10.56 0a2.62 2.62 0 1 0-2.62-2.61 2.61 2.61 0 0 0 2.62 2.61Zm10.55 0a2.62 2.62 0 1 0-2.61-2.61 2.61 2.61 0 0 0 2.61 2.61Zm-401 10.55a2.61 2.61 0 1 0-2.61-2.61 2.61 2.61 0 0 0 2.61 2.61Zm10.55 0a2.61 2.61 0 1 0-2.61-2.61 2.61 2.61 0 0 0 2.61 2.61Zm10.55 0a2.61 2.61 0 1 0-2.61-2.61 2.61 2.61 0 0 0 2.61 2.61Zm10.56 0a2.61 2.61 0 1 0-2.62-2.61 2.61 2.61 0 0 0 2.62 2.61Zm10.55 0a2.61 2.61 0 1 0-2.61-2.61 2.61 2.61 0 0 0 2.61 2.61Zm10.55 0a2.61 2.61 0 1 0-2.61-2.61 2.61 2.61 0 0 0 2.61 2.61Zm10.55 0a2.61 2.61 0 1 0-2.61-2.61 2.61 2.61 0 0 0 2.61 2.61Zm10.56 0a2.61 2.61 0 1 0-2.61-2.61 2.61 2.61 0 0 0 2.61 2.61Zm10.55 0a2.61 2.61 0 1 0-2.61-2.61 2.61 2.61 0 0 0 2.61 2.61Zm10.55 0a2.61 2.61 0 1 0-2.61-2.61 2.61 2.61 0 0 0 2.61 2.61Zm52.77 0a2.61 2.61 0 1 0-2.62-2.61 2.61 2.61 0 0 0 2.62 2.61Zm10.55 0a2.61 2.61 0 1 0-2.61-2.61 2.61 2.61 0 0 0 2.61 2.61Zm10.55 0a2.61 2.61 0 1 0-2.61-2.61 2.61 2.61 0 0 0 2.61 2.61Zm10.55 0a2.61 2.61 0 1 0-2.61-2.61 2.61 2.61 0 0 0 2.61 2.61Zm10.56 0a2.61 2.61 0 1 0-2.62-2.61 2.61 2.61 0 0 0 2.62 2.61Zm10.55 0a2.61 2.61 0 1 0-2.61-2.61 2.61 2.61 0 0 0 2.61 2.61Zm10.55 0a2.61 2.61 0 1 0-2.61-2.61 2.61 2.61 0 0 0 2.61 2.61Zm10.56 0a2.61 2.61 0 1 0-2.61-2.61 2.61 2.61 0 0 0 2.61 2.61Zm10.55 0a2.61 2.61 0 1 0-2.61-2.61 2.61 2.61 0 0 0 2.61 2.61Zm10.55 0a2.61 2.61 0 1 0-2.61-2.61 2.61 2.61 0 0 0 2.61 2.61Zm10.55 0a2.61 2.61 0 1 0-2.61-2.61 2.61 2.61 0 0 0 2.61 2.61Zm31.66 0a2.61 2.61 0 1 0-2.61-2.61 2.61 2.61 0 0 0 2.61 2.61Zm10.55 0a2.61 2.61 0 1 0-2.61-2.61 2.61 2.61 0 0 0 2.61 2.61Zm10.56 0a2.61 2.61 0 1 0-2.62-2.61 2.61 2.61 0 0 0 2.62 2.61Zm10.58 0a2.61 2.61 0 1 0-2.61-2.61 2.61 2.61 0 0 0 2.61 2.61Zm10.52 0a2.61 2.61 0 1 0-2.61-2.61 2.61 2.61 0 0 0 2.61 2.61Zm10.55 0a2.61 2.61 0 1 0-2.61-2.61 2.61 2.61 0 0 0 2.61 2.61Zm10.55 0a2.61 2.61 0 1 0-2.61-2.61 2.61 2.61 0 0 0 2.61 2.61Zm42.22 0a2.61 2.61 0 1 0-2.62-2.61 2.61 2.61 0 0 0 2.62 2.61Zm10.55 0a2.61 2.61 0 1 0-2.61-2.61 2.61 2.61 0 0 0 2.61 2.61Zm10.55 0a2.61 2.61 0 1 0-2.61-2.61 2.61 2.61 0 0 0 2.61 2.61Zm10.55 0a2.61 2.61 0 1 0-2.61-2.61 2.61 2.61 0 0 0 2.61 2.61Zm10.56 0a2.61 2.61 0 1 0-2.61-2.61 2.61 2.61 0 0 0 2.61 2.61Zm21.1 0a2.61 2.61 0 1 0-2.61-2.61 2.61 2.61 0 0 0 2.61 2.61Zm-453.76 10.55a2.61 2.61 0 1 0-2.61-2.61 2.61 2.61 0 0 0 2.61 2.61Zm10.55 0a2.61 2.61 0 1 0-2.61-2.61 2.61 2.61 0 0 0 2.61 2.61Zm10.55 0a2.61 2.61 0 1 0-2.61-2.61 2.61 2.61 0 0 0 2.61 2.61Zm10.56 0a2.61 2.61 0 1 0-2.62-2.61 2.61 2.61 0 0 0 2.62 2.61Zm10.55 0a2.61 2.61 0 1 0-2.61-2.61 2.61 2.61 0 0 0 2.61 2.61Zm10.55 0a2.61 2.61 0 1 0-2.61-2.61 2.61 2.61 0 0 0 2.61 2.61Zm10.55 0a2.61 2.61 0 1 0-2.61-2.61 2.61 2.61 0 0 0 2.61 2.61Zm10.56 0a2.61 2.61 0 1 0-2.61-2.61 2.61 2.61 0 0 0 2.61 2.61Zm10.55 0a2.61 2.61 0 1 0-2.61-2.61 2.61 2.61 0 0 0 2.61 2.61Zm10.55 0a2.61 2.61 0 1 0-2.61-2.61 2.61 2.61 0 0 0 2.61 2.61Zm52.77 0a2.61 2.61 0 1 0-2.62-2.61 2.61 2.61 0 0 0 2.62 2.61Zm10.55 0a2.61 2.61 0 1 0-2.61-2.61 2.61 2.61 0 0 0 2.61 2.61Zm10.55 0a2.61 2.61 0 1 0-2.61-2.61 2.61 2.61 0 0 0 2.61 2.61Zm10.55 0a2.61 2.61 0 1 0-2.61-2.61 2.61 2.61 0 0 0 2.61 2.61Zm10.56 0a2.61 2.61 0 1 0-2.62-2.61 2.61 2.61 0 0 0 2.62 2.61Zm10.55 0a2.61 2.61 0 1 0-2.61-2.61 2.61 2.61 0 0 0 2.61 2.61Zm10.55 0a2.61 2.61 0 1 0-2.61-2.61 2.61 2.61 0 0 0 2.61 2.61Zm10.56 0a2.61 2.61 0 1 0-2.61-2.61 2.61 2.61 0 0 0 2.61 2.61Zm10.55 0a2.61 2.61 0 1 0-2.61-2.61 2.61 2.61 0 0 0 2.61 2.61Zm10.55 0a2.61 2.61 0 1 0-2.61-2.61 2.61 2.61 0 0 0 2.61 2.61Zm10.55 0a2.61 2.61 0 1 0-2.61-2.61 2.61 2.61 0 0 0 2.61 2.61Zm21.11 0a2.61 2.61 0 1 0-2.61-2.61 2.61 2.61 0 0 0 2.61 2.61Zm10.55 0a2.61 2.61 0 1 0-2.61-2.61 2.61 2.61 0 0 0 2.61 2.61Zm10.55 0a2.61 2.61 0 1 0-2.61-2.61 2.61 2.61 0 0 0 2.61 2.61Zm10.56 0a2.61 2.61 0 1 0-2.62-2.61 2.61 2.61 0 0 0 2.62 2.61Zm10.58 0a2.61 2.61 0 1 0-2.61-2.61 2.61 2.61 0 0 0 2.61 2.61Zm10.52 0a2.61 2.61 0 1 0-2.61-2.61 2.61 2.61 0 0 0 2.61 2.61Zm10.55 0a2.61 2.61 0 1 0-2.61-2.61 2.61 2.61 0 0 0 2.61 2.61Zm42.21 0a2.61 2.61 0 1 0-2.61-2.61 2.61 2.61 0 0 0 2.61 2.61Zm10.56 0a2.61 2.61 0 1 0-2.62-2.61 2.61 2.61 0 0 0 2.62 2.61Zm10.55 0a2.61 2.61 0 1 0-2.61-2.61 2.61 2.61 0 0 0 2.61 2.61Zm21.1 0a2.61 2.61 0 1 0-2.61-2.61 2.61 2.61 0 0 0 2.61 2.61Zm10.56 0a2.61 2.61 0 1 0-2.61-2.61 2.61 2.61 0 0 0 2.61 2.61Zm10.55 0a2.61 2.61 0 1 0-2.61-2.61 2.61 2.61 0 0 0 2.61 2.61Zm10.55 0a2.61 2.61 0 1 0-2.61-2.61 2.61 2.61 0 0 0 2.61 2.61Zm10.56 0a2.61 2.61 0 1 0-2.62-2.61 2.61 2.61 0 0 0 2.62 2.61Zm10.55 0a2.61 2.61 0 1 0-2.61-2.61 2.61 2.61 0 0 0 2.61 2.61Zm10.55 0a2.61 2.61 0 1 0-2.61-2.61 2.61 2.61 0 0 0 2.61 2.61Zm10.55 0a2.61 2.61 0 1 0-2.61-2.61 2.61 2.61 0 0 0 2.61 2.61Zm10.56 0a2.61 2.61 0 1 0-2.62-2.61 2.61 2.61 0 0 0 2.62 2.61Zm-495.98 10.56a2.62 2.62 0 1 0-2.61-2.62 2.61 2.61 0 0 0 2.61 2.62Zm10.55 0a2.62 2.62 0 1 0-2.61-2.62 2.62 2.62 0 0 0 2.61 2.62Zm10.56 0a2.62 2.62 0 1 0-2.62-2.62 2.61 2.61 0 0 0 2.62 2.62Zm10.55 0a2.62 2.62 0 1 0-2.61-2.62 2.61 2.61 0 0 0 2.61 2.62Zm10.55 0a2.62 2.62 0 1 0-2.61-2.62 2.61 2.61 0 0 0 2.61 2.62Zm10.55 0a2.62 2.62 0 1 0-2.61-2.62 2.62 2.62 0 0 0 2.61 2.62Zm10.56 0a2.62 2.62 0 1 0-2.61-2.62 2.61 2.61 0 0 0 2.61 2.62Zm10.55 0a2.62 2.62 0 1 0-2.61-2.62 2.61 2.61 0 0 0 2.61 2.62Zm10.55 0a2.62 2.62 0 1 0-2.61-2.62 2.61 2.61 0 0 0 2.61 2.62Zm10.56 0a2.62 2.62 0 1 0-2.62-2.62 2.61 2.61 0 0 0 2.62 2.62Zm31.65 0a2.62 2.62 0 1 0-2.61-2.62 2.61 2.61 0 0 0 2.61 2.62Zm10.56 0a2.62 2.62 0 1 0-2.62-2.62 2.61 2.61 0 0 0 2.62 2.62Zm10.55 0a2.62 2.62 0 1 0-2.61-2.62 2.61 2.61 0 0 0 2.61 2.62Zm10.55 0a2.62 2.62 0 1 0-2.61-2.62 2.61 2.61 0 0 0 2.61 2.62Zm10.55 0a2.62 2.62 0 1 0-2.61-2.62 2.62 2.62 0 0 0 2.61 2.62Zm10.56 0a2.62 2.62 0 1 0-2.62-2.62 2.61 2.61 0 0 0 2.62 2.62Zm10.55 0a2.62 2.62 0 1 0-2.61-2.62 2.61 2.61 0 0 0 2.61 2.62Zm10.55 0a2.62 2.62 0 1 0-2.61-2.62 2.61 2.61 0 0 0 2.61 2.62Zm10.56 0a2.62 2.62 0 1 0-2.61-2.62 2.62 2.62 0 0 0 2.61 2.62Zm10.55 0a2.62 2.62 0 1 0-2.61-2.62 2.61 2.61 0 0 0 2.61 2.62Zm10.55 0a2.62 2.62 0 1 0-2.61-2.62 2.61 2.61 0 0 0 2.61 2.62Zm31.66 0a2.62 2.62 0 1 0-2.61-2.62 2.61 2.61 0 0 0 2.61 2.62Zm10.55 0a2.62 2.62 0 1 0-2.61-2.62 2.61 2.61 0 0 0 2.61 2.62Zm10.55 0a2.62 2.62 0 1 0-2.61-2.62 2.61 2.61 0 0 0 2.61 2.62Zm10.56 0a2.62 2.62 0 1 0-2.62-2.62 2.61 2.61 0 0 0 2.62 2.62Zm10.58 0a2.62 2.62 0 1 0-2.61-2.62 2.61 2.61 0 0 0 2.61 2.62Zm10.52 0a2.62 2.62 0 1 0-2.61-2.62 2.61 2.61 0 0 0 2.61 2.62Zm10.55 0a2.62 2.62 0 1 0-2.61-2.62 2.62 2.62 0 0 0 2.61 2.62Zm10.55 0a2.62 2.62 0 1 0-2.61-2.62 2.62 2.62 0 0 0 2.61 2.62Zm10.56 0a2.62 2.62 0 1 0-2.61-2.62 2.61 2.61 0 0 0 2.61 2.62Zm10.55 0a2.62 2.62 0 1 0-2.61-2.62 2.61 2.61 0 0 0 2.61 2.62Zm10.55 0a2.62 2.62 0 1 0-2.61-2.62 2.62 2.62 0 0 0 2.61 2.62Zm10.56 0a2.62 2.62 0 1 0-2.62-2.62 2.61 2.61 0 0 0 2.62 2.62Zm21.1 0a2.62 2.62 0 1 0-2.61-2.62 2.61 2.61 0 0 0 2.61 2.62Zm10.55 0a2.62 2.62 0 1 0-2.61-2.62 2.62 2.62 0 0 0 2.61 2.62Zm10.56 0a2.62 2.62 0 1 0-2.61-2.62 2.61 2.61 0 0 0 2.61 2.62Zm10.55 0a2.62 2.62 0 1 0-2.61-2.62 2.61 2.61 0 0 0 2.61 2.62Zm10.55 0a2.62 2.62 0 1 0-2.61-2.62 2.61 2.61 0 0 0 2.61 2.62Zm10.56 0a2.62 2.62 0 1 0-2.62-2.62 2.61 2.61 0 0 0 2.62 2.62Zm10.55 0a2.62 2.62 0 1 0-2.61-2.62 2.61 2.61 0 0 0 2.61 2.62Zm10.55 0a2.62 2.62 0 1 0-2.61-2.62 2.61 2.61 0 0 0 2.61 2.62Zm10.55 0a2.62 2.62 0 1 0-2.61-2.62 2.61 2.61 0 0 0 2.61 2.62Zm10.56 0a2.62 2.62 0 1 0-2.62-2.62 2.61 2.61 0 0 0 2.62 2.62Zm10.55 0a2.62 2.62 0 1 0-2.61-2.62 2.61 2.61 0 0 0 2.61 2.62Zm10.53 0a2.62 2.62 0 1 0-2.61-2.62 2.61 2.61 0 0 0 2.61 2.62Zm10.57 0a2.62 2.62 0 1 0-2.61-2.62 2.62 2.62 0 0 0 2.61 2.62Zm-517.08 10.55a2.62 2.62 0 1 0-2.61-2.61 2.61 2.61 0 0 0 2.61 2.61Zm10.56 0a2.62 2.62 0 1 0-2.62-2.61 2.61 2.61 0 0 0 2.62 2.61Zm10.55 0a2.62 2.62 0 1 0-2.61-2.61 2.61 2.61 0 0 0 2.61 2.61Zm10.55 0a2.62 2.62 0 1 0-2.61-2.61 2.61 2.61 0 0 0 2.61 2.61Zm10.55 0a2.62 2.62 0 1 0-2.61-2.61 2.61 2.61 0 0 0 2.61 2.61Zm10.56 0a2.62 2.62 0 1 0-2.61-2.61 2.61 2.61 0 0 0 2.61 2.61Zm10.55 0a2.62 2.62 0 1 0-2.61-2.61 2.61 2.61 0 0 0 2.61 2.61Zm10.55 0a2.62 2.62 0 1 0-2.61-2.61 2.61 2.61 0 0 0 2.61 2.61Zm10.56 0a2.62 2.62 0 1 0-2.62-2.61 2.61 2.61 0 0 0 2.62 2.61Zm10.55 0a2.62 2.62 0 1 0-2.61-2.61 2.61 2.61 0 0 0 2.61 2.61Zm10.53 0a2.62 2.62 0 1 0-2.61-2.61 2.61 2.61 0 0 0 2.61 2.61Zm10.57 0a2.62 2.62 0 1 0-2.61-2.61 2.61 2.61 0 0 0 2.61 2.61Zm21.11 0a2.62 2.62 0 1 0-2.61-2.61 2.61 2.61 0 0 0 2.61 2.61Zm10.55 0a2.62 2.62 0 1 0-2.61-2.61 2.61 2.61 0 0 0 2.61 2.61Zm10.55 0a2.62 2.62 0 1 0-2.61-2.61 2.61 2.61 0 0 0 2.61 2.61Zm10.56 0a2.62 2.62 0 1 0-2.62-2.61 2.61 2.61 0 0 0 2.62 2.61Zm10.55 0a2.62 2.62 0 1 0-2.61-2.61 2.61 2.61 0 0 0 2.61 2.61Zm10.55 0a2.62 2.62 0 1 0-2.61-2.61 2.61 2.61 0 0 0 2.61 2.61Zm10.56 0a2.62 2.62 0 1 0-2.61-2.61 2.61 2.61 0 0 0 2.61 2.61Zm10.55 0a2.62 2.62 0 1 0-2.61-2.61 2.61 2.61 0 0 0 2.61 2.61Zm10.55 0a2.62 2.62 0 1 0-2.61-2.61 2.61 2.61 0 0 0 2.61 2.61Zm31.66 0a2.62 2.62 0 1 0-2.61-2.61 2.61 2.61 0 0 0 2.61 2.61Zm10.55 0a2.62 2.62 0 1 0-2.61-2.61 2.61 2.61 0 0 0 2.61 2.61Zm10.55 0a2.62 2.62 0 1 0-2.61-2.61 2.61 2.61 0 0 0 2.61 2.61Zm10.56 0a2.62 2.62 0 1 0-2.62-2.61 2.61 2.61 0 0 0 2.62 2.61Zm10.58 0a2.62 2.62 0 1 0-2.61-2.61 2.61 2.61 0 0 0 2.61 2.61Zm31.62 0a2.62 2.62 0 1 0-2.61-2.61 2.61 2.61 0 0 0 2.61 2.61Zm10.56 0a2.62 2.62 0 1 0-2.61-2.61 2.61 2.61 0 0 0 2.61 2.61Zm10.55 0a2.62 2.62 0 1 0-2.61-2.61 2.61 2.61 0 0 0 2.61 2.61Zm21.11 0a2.62 2.62 0 1 0-2.62-2.61 2.61 2.61 0 0 0 2.62 2.61Zm10.55 0a2.62 2.62 0 1 0-2.61-2.61 2.61 2.61 0 0 0 2.61 2.61Zm10.55 0a2.62 2.62 0 1 0-2.61-2.61 2.61 2.61 0 0 0 2.61 2.61Zm10.55 0a2.62 2.62 0 1 0-2.61-2.61 2.61 2.61 0 0 0 2.61 2.61Zm21.11 0a2.62 2.62 0 1 0-2.61-2.61 2.61 2.61 0 0 0 2.61 2.61Zm10.55 0a2.62 2.62 0 1 0-2.61-2.61 2.61 2.61 0 0 0 2.61 2.61Zm10.56 0a2.62 2.62 0 1 0-2.62-2.61 2.61 2.61 0 0 0 2.62 2.61Zm10.55 0a2.62 2.62 0 1 0-2.61-2.61 2.61 2.61 0 0 0 2.61 2.61Zm10.55 0a2.62 2.62 0 1 0-2.61-2.61 2.61 2.61 0 0 0 2.61 2.61Zm10.55 0a2.62 2.62 0 1 0-2.61-2.61 2.61 2.61 0 0 0 2.61 2.61Zm10.56 0a2.62 2.62 0 1 0-2.62-2.61 2.61 2.61 0 0 0 2.62 2.61Zm10.55 0a2.62 2.62 0 1 0-2.61-2.61 2.61 2.61 0 0 0 2.61 2.61Zm10.53 0a2.62 2.62 0 1 0-2.61-2.61 2.61 2.61 0 0 0 2.61 2.61Zm10.57 0a2.62 2.62 0 1 0-2.61-2.61 2.61 2.61 0 0 0 2.61 2.61Zm10.56 0a2.62 2.62 0 1 0-2.61-2.61 2.61 2.61 0 0 0 2.61 2.61Zm10.55 0a2.62 2.62 0 1 0-2.61-2.61 2.61 2.61 0 0 0 2.61 2.61Zm-527.63 10.55a2.61 2.61 0 1 0-2.62-2.61 2.61 2.61 0 0 0 2.62 2.61Zm10.55 0a2.61 2.61 0 1 0-2.61-2.61 2.61 2.61 0 0 0 2.61 2.61Zm10.55 0a2.61 2.61 0 1 0-2.61-2.61 2.61 2.61 0 0 0 2.61 2.61Zm10.55 0a2.61 2.61 0 1 0-2.61-2.61 2.61 2.61 0 0 0 2.61 2.61Zm10.56 0a2.61 2.61 0 1 0-2.61-2.61 2.61 2.61 0 0 0 2.61 2.61Zm10.55 0a2.61 2.61 0 1 0-2.61-2.61 2.61 2.61 0 0 0 2.61 2.61Zm10.55 0a2.61 2.61 0 1 0-2.61-2.61 2.61 2.61 0 0 0 2.61 2.61Zm10.56 0a2.61 2.61 0 1 0-2.62-2.61 2.61 2.61 0 0 0 2.62 2.61Zm10.55 0a2.61 2.61 0 1 0-2.61-2.61 2.61 2.61 0 0 0 2.61 2.61Zm10.53 0a2.61 2.61 0 1 0-2.61-2.61 2.61 2.61 0 0 0 2.61 2.61Zm10.57 0a2.61 2.61 0 1 0-2.61-2.61 2.61 2.61 0 0 0 2.61 2.61Zm21.11 0a2.61 2.61 0 1 0-2.61-2.61 2.61 2.61 0 0 0 2.61 2.61Zm10.55 0a2.61 2.61 0 1 0-2.61-2.61 2.61 2.61 0 0 0 2.61 2.61Zm10.55 0a2.61 2.61 0 1 0-2.61-2.61 2.61 2.61 0 0 0 2.61 2.61Zm10.56 0a2.61 2.61 0 1 0-2.62-2.61 2.61 2.61 0 0 0 2.62 2.61Zm10.55 0a2.61 2.61 0 1 0-2.61-2.61 2.61 2.61 0 0 0 2.61 2.61Zm10.55 0a2.61 2.61 0 1 0-2.61-2.61 2.61 2.61 0 0 0 2.61 2.61Zm10.56 0a2.61 2.61 0 1 0-2.61-2.61 2.61 2.61 0 0 0 2.61 2.61Zm10.55 0a2.61 2.61 0 1 0-2.61-2.61 2.61 2.61 0 0 0 2.61 2.61Zm10.55 0a2.61 2.61 0 1 0-2.61-2.61 2.61 2.61 0 0 0 2.61 2.61Zm31.66 0a2.61 2.61 0 1 0-2.61-2.61 2.61 2.61 0 0 0 2.61 2.61Zm10.55 0a2.61 2.61 0 1 0-2.61-2.61 2.61 2.61 0 0 0 2.61 2.61Zm10.55 0a2.61 2.61 0 1 0-2.61-2.61 2.61 2.61 0 0 0 2.61 2.61Zm10.56 0a2.61 2.61 0 1 0-2.62-2.61 2.61 2.61 0 0 0 2.62 2.61Zm10.58 0a2.61 2.61 0 1 0-2.61-2.61 2.61 2.61 0 0 0 2.61 2.61Zm42.18 0a2.61 2.61 0 1 0-2.61-2.61 2.61 2.61 0 0 0 2.61 2.61Zm10.55 0a2.61 2.61 0 1 0-2.61-2.61 2.61 2.61 0 0 0 2.61 2.61Zm10.55 0a2.61 2.61 0 1 0-2.61-2.61 2.61 2.61 0 0 0 2.61 2.61Zm10.56 0a2.61 2.61 0 1 0-2.62-2.61 2.61 2.61 0 0 0 2.62 2.61Zm10.55 0a2.61 2.61 0 1 0-2.61-2.61 2.61 2.61 0 0 0 2.61 2.61Zm10.55 0a2.61 2.61 0 1 0-2.61-2.61 2.61 2.61 0 0 0 2.61 2.61Zm10.55 0a2.61 2.61 0 1 0-2.61-2.61 2.61 2.61 0 0 0 2.61 2.61Zm10.56 0a2.61 2.61 0 1 0-2.61-2.61 2.61 2.61 0 0 0 2.61 2.61Zm10.55 0a2.61 2.61 0 1 0-2.61-2.61 2.61 2.61 0 0 0 2.61 2.61Zm10.55 0a2.61 2.61 0 1 0-2.61-2.61 2.61 2.61 0 0 0 2.61 2.61Zm10.56 0a2.61 2.61 0 1 0-2.62-2.61 2.61 2.61 0 0 0 2.62 2.61Zm10.55 0a2.61 2.61 0 1 0-2.61-2.61 2.61 2.61 0 0 0 2.61 2.61Zm10.55 0a2.61 2.61 0 1 0-2.61-2.61 2.61 2.61 0 0 0 2.61 2.61Zm10.55 0a2.61 2.61 0 1 0-2.61-2.61 2.61 2.61 0 0 0 2.61 2.61Zm10.56 0a2.61 2.61 0 1 0-2.62-2.61 2.61 2.61 0 0 0 2.62 2.61Zm10.55 0a2.61 2.61 0 1 0-2.61-2.61 2.61 2.61 0 0 0 2.61 2.61Zm10.53 0a2.61 2.61 0 1 0-2.61-2.61 2.61 2.61 0 0 0 2.61 2.61Zm10.57 0a2.61 2.61 0 1 0-2.61-2.61 2.61 2.61 0 0 0 2.61 2.61Zm10.56 0a2.61 2.61 0 1 0-2.61-2.61 2.61 2.61 0 0 0 2.61 2.61Zm10.55 0a2.61 2.61 0 1 0-2.61-2.61 2.61 2.61 0 0 0 2.61 2.61Zm-506.53 10.56a2.61 2.61 0 1 0-2.61-2.61 2.61 2.61 0 0 0 2.61 2.61Zm10.55 0a2.61 2.61 0 1 0-2.61-2.61 2.61 2.61 0 0 0 2.61 2.61Zm10.56 0a2.61 2.61 0 1 0-2.61-2.61 2.61 2.61 0 0 0 2.61 2.61Zm10.55 0a2.61 2.61 0 1 0-2.61-2.61 2.61 2.61 0 0 0 2.61 2.61Zm10.55 0a2.61 2.61 0 1 0-2.61-2.61 2.61 2.61 0 0 0 2.61 2.61Zm10.56 0a2.61 2.61 0 1 0-2.62-2.61 2.61 2.61 0 0 0 2.62 2.61Zm105.52 0a2.61 2.61 0 1 0-2.61-2.61 2.61 2.61 0 0 0 2.61 2.61Zm10.56 0a2.61 2.61 0 1 0-2.61-2.61 2.61 2.61 0 0 0 2.61 2.61Zm10.55 0a2.61 2.61 0 1 0-2.61-2.61 2.61 2.61 0 0 0 2.61 2.61Zm10.55 0a2.61 2.61 0 1 0-2.61-2.61 2.61 2.61 0 0 0 2.61 2.61Zm31.66 0a2.61 2.61 0 1 0-2.61-2.61 2.61 2.61 0 0 0 2.61 2.61Zm10.55 0a2.61 2.61 0 1 0-2.61-2.61 2.61 2.61 0 0 0 2.61 2.61Zm10.55 0a2.61 2.61 0 1 0-2.61-2.61 2.61 2.61 0 0 0 2.61 2.61Zm10.56 0a2.61 2.61 0 1 0-2.62-2.61 2.61 2.61 0 0 0 2.62 2.61Zm10.58 0a2.61 2.61 0 1 0-2.61-2.61 2.61 2.61 0 0 0 2.61 2.61Zm10.52 0a2.61 2.61 0 1 0-2.61-2.61 2.61 2.61 0 0 0 2.61 2.61Zm42.21 0a2.61 2.61 0 1 0-2.61-2.61 2.61 2.61 0 0 0 2.61 2.61Zm10.55 0a2.61 2.61 0 1 0-2.61-2.61 2.61 2.61 0 0 0 2.61 2.61Zm10.56 0a2.61 2.61 0 1 0-2.62-2.61 2.61 2.61 0 0 0 2.62 2.61Zm31.65 0a2.61 2.61 0 1 0-2.61-2.61 2.61 2.61 0 0 0 2.61 2.61Zm10.56 0a2.61 2.61 0 1 0-2.61-2.61 2.61 2.61 0 0 0 2.61 2.61Zm21.1 0a2.61 2.61 0 1 0-2.61-2.61 2.61 2.61 0 0 0 2.61 2.61Zm10.56 0a2.61 2.61 0 1 0-2.62-2.61 2.61 2.61 0 0 0 2.62 2.61Zm10.55 0a2.61 2.61 0 1 0-2.61-2.61 2.61 2.61 0 0 0 2.61 2.61Zm10.55 0a2.61 2.61 0 1 0-2.61-2.61 2.61 2.61 0 0 0 2.61 2.61Zm10.55 0a2.61 2.61 0 1 0-2.61-2.61 2.61 2.61 0 0 0 2.61 2.61Zm10.56 0a2.61 2.61 0 1 0-2.62-2.61 2.61 2.61 0 0 0 2.62 2.61Zm10.55 0a2.61 2.61 0 1 0-2.61-2.61 2.61 2.61 0 0 0 2.61 2.61Zm10.53 0a2.61 2.61 0 1 0-2.61-2.61 2.61 2.61 0 0 0 2.61 2.61Zm10.57 0a2.61 2.61 0 1 0-2.61-2.61 2.61 2.61 0 0 0 2.61 2.61Zm10.56 0a2.61 2.61 0 1 0-2.61-2.61 2.61 2.61 0 0 0 2.61 2.61Zm10.55 0a2.61 2.61 0 1 0-2.61-2.61 2.61 2.61 0 0 0 2.61 2.61ZM204.15 208.5a2.62 2.62 0 1 0-2.61-2.62 2.61 2.61 0 0 0 2.61 2.62Zm10.55 0a2.62 2.62 0 1 0-2.61-2.62 2.62 2.62 0 0 0 2.61 2.62Zm10.56 0a2.62 2.62 0 1 0-2.61-2.62 2.61 2.61 0 0 0 2.61 2.62Zm10.55 0a2.62 2.62 0 1 0-2.61-2.62 2.61 2.61 0 0 0 2.61 2.62Zm10.55 0a2.62 2.62 0 1 0-2.61-2.62 2.61 2.61 0 0 0 2.61 2.62Zm10.56 0a2.62 2.62 0 1 0-2.62-2.62 2.61 2.61 0 0 0 2.62 2.62Zm168.84 0a2.62 2.62 0 1 0-2.61-2.62 2.61 2.61 0 0 0 2.61 2.62Zm10.55 0a2.62 2.62 0 1 0-2.61-2.62 2.61 2.61 0 0 0 2.61 2.62Zm10.55 0a2.62 2.62 0 1 0-2.61-2.62 2.61 2.61 0 0 0 2.61 2.62Zm10.56 0a2.62 2.62 0 1 0-2.62-2.62 2.61 2.61 0 0 0 2.62 2.62Zm10.58 0a2.62 2.62 0 1 0-2.61-2.62 2.61 2.61 0 0 0 2.61 2.62Zm10.52 0a2.62 2.62 0 1 0-2.61-2.62 2.61 2.61 0 0 0 2.61 2.62Zm126.63 0a2.62 2.62 0 1 0-2.61-2.62 2.61 2.61 0 0 0 2.61 2.62Zm21.11 0a2.62 2.62 0 1 0-2.61-2.62 2.61 2.61 0 0 0 2.61 2.62Zm21.1 0a2.62 2.62 0 1 0-2.61-2.62 2.61 2.61 0 0 0 2.61 2.62Zm10.56 0a2.62 2.62 0 1 0-2.62-2.62 2.61 2.61 0 0 0 2.62 2.62Zm10.55 0a2.62 2.62 0 1 0-2.61-2.62 2.61 2.61 0 0 0 2.61 2.62Zm10.53 0a2.62 2.62 0 1 0-2.61-2.62 2.61 2.61 0 0 0 2.61 2.62Zm10.57 0a2.62 2.62 0 1 0-2.61-2.62 2.62 2.62 0 0 0 2.61 2.62Zm10.56 0a2.62 2.62 0 1 0-2.61-2.62 2.61 2.61 0 0 0 2.61 2.62Zm10.55 0a2.62 2.62 0 1 0-2.61-2.62 2.61 2.61 0 0 0 2.61 2.62Zm-474.87 10.55a2.61 2.61 0 1 0-2.61-2.61 2.61 2.61 0 0 0 2.61 2.61Zm10.55 0a2.61 2.61 0 1 0-2.61-2.61 2.61 2.61 0 0 0 2.61 2.61Zm10.56 0a2.61 2.61 0 1 0-2.62-2.61 2.61 2.61 0 0 0 2.62 2.61Zm10.55 0a2.61 2.61 0 1 0-2.61-2.61 2.61 2.61 0 0 0 2.61 2.61Zm10.53 0a2.61 2.61 0 1 0-2.61-2.61 2.61 2.61 0 0 0 2.61 2.61Zm10.57 0a2.61 2.61 0 1 0-2.61-2.61 2.61 2.61 0 0 0 2.61 2.61Zm31.66 0a2.61 2.61 0 1 0-2.61-2.61 2.61 2.61 0 0 0 2.61 2.61Zm105.53 0a2.61 2.61 0 1 0-2.61-2.61 2.61 2.61 0 0 0 2.61 2.61Zm10.55 0a2.61 2.61 0 1 0-2.61-2.61 2.61 2.61 0 0 0 2.61 2.61Zm10.55 0a2.61 2.61 0 1 0-2.61-2.61 2.61 2.61 0 0 0 2.61 2.61Zm21.14 0a2.61 2.61 0 1 0-2.61-2.61 2.61 2.61 0 0 0 2.61 2.61Zm10.52 0a2.61 2.61 0 1 0-2.61-2.61 2.61 2.61 0 0 0 2.61 2.61Zm84.42 0a2.61 2.61 0 1 0-2.61-2.61 2.61 2.61 0 0 0 2.61 2.61Zm10.55 0a2.61 2.61 0 1 0-2.61-2.61 2.61 2.61 0 0 0 2.61 2.61Zm31.66 0a2.61 2.61 0 1 0-2.61-2.61 2.61 2.61 0 0 0 2.61 2.61Zm21.11 0a2.61 2.61 0 1 0-2.61-2.61 2.61 2.61 0 0 0 2.61 2.61Zm52.74 0a2.61 2.61 0 1 0-2.61-2.61 2.61 2.61 0 0 0 2.61 2.61Zm10.57 0a2.61 2.61 0 1 0-2.61-2.61 2.61 2.61 0 0 0 2.61 2.61Zm10.56 0a2.61 2.61 0 1 0-2.61-2.61 2.61 2.61 0 0 0 2.61 2.61Zm10.55 0a2.61 2.61 0 1 0-2.61-2.61 2.61 2.61 0 0 0 2.61 2.61ZM246.36 229.6a2.61 2.61 0 1 0-2.61-2.61 2.61 2.61 0 0 0 2.61 2.61Zm10.56 0a2.61 2.61 0 1 0-2.62-2.65 2.61 2.61 0 0 0 2.62 2.65Zm10.55 0a2.61 2.61 0 1 0-2.61-2.61 2.61 2.61 0 0 0 2.61 2.61Zm10.53 0a2.61 2.61 0 1 0-2.61-2.61 2.61 2.61 0 0 0 2.61 2.61Zm10.57 0a2.61 2.61 0 1 0-2.57-2.65 2.61 2.61 0 0 0 2.57 2.65Zm10.56 0a2.61 2.61 0 1 0-2.62-2.61 2.61 2.61 0 0 0 2.62 2.61Zm10.55 0a2.61 2.61 0 1 0-2.61-2.61 2.61 2.61 0 0 0 2.61 2.61Zm10.55 0a2.61 2.61 0 1 0-2.61-2.61 2.61 2.61 0 0 0 2.61 2.61Zm10.55 0a2.61 2.61 0 1 0-2.61-2.61 2.61 2.61 0 0 0 2.61 2.61Zm10.56 0a2.61 2.61 0 1 0-2.62-2.61 2.61 2.61 0 0 0 2.62 2.61Zm10.55 0a2.61 2.61 0 1 0-2.61-2.61 2.61 2.61 0 0 0 2.61 2.61Zm10.55 0a2.61 2.61 0 1 0-2.61-2.61 2.61 2.61 0 0 0 2.61 2.61Zm10.56 0a2.61 2.61 0 1 0-2.61-2.61 2.61 2.61 0 0 0 2.61 2.61Zm73.86 0a2.61 2.61 0 1 0-2.61-2.61 2.61 2.61 0 0 0 2.61 2.61Zm105.53 0a2.61 2.61 0 1 0-2.61-2.61 2.61 2.61 0 0 0 2.61 2.61Zm10.55 0a2.61 2.61 0 1 0-2.61-2.61 2.61 2.61 0 0 0 2.61 2.61Zm21.11 0a2.61 2.61 0 1 0-2.61-2.61 2.61 2.61 0 0 0 2.61 2.61Zm10.55 0a2.61 2.61 0 1 0-2.6-2.65 2.61 2.61 0 0 0 2.6 2.65Zm31.66 0a2.61 2.61 0 1 0-2.61-2.61 2.61 2.61 0 0 0 2.61 2.61Zm52.74 0a2.61 2.61 0 1 0-2.61-2.61 2.61 2.61 0 0 0 2.61 2.61Zm10.57 0a2.61 2.61 0 1 0-2.57-2.65 2.61 2.61 0 0 0 2.57 2.65Zm10.56 0a2.61 2.61 0 1 0-2.61-2.61 2.61 2.61 0 0 0 2.61 2.61Zm10.55 0a2.61 2.61 0 1 0-2.61-2.61 2.61 2.61 0 0 0 2.61 2.61Zm-453.76 10.55a2.61 2.61 0 1 0-2.62-2.61 2.61 2.61 0 0 0 2.62 2.61Zm10.55 0a2.61 2.61 0 1 0-2.61-2.61 2.61 2.61 0 0 0 2.61 2.61Zm10.53 0a2.61 2.61 0 1 0-2.61-2.61 2.61 2.61 0 0 0 2.61 2.61Zm10.57 0a2.61 2.61 0 1 0-2.61-2.61 2.61 2.61 0 0 0 2.61 2.61Zm10.56 0a2.61 2.61 0 1 0-2.62-2.61 2.61 2.61 0 0 0 2.62 2.61Zm10.55 0a2.61 2.61 0 1 0-2.61-2.61 2.61 2.61 0 0 0 2.61 2.61Zm10.55 0a2.61 2.61 0 1 0-2.61-2.61 2.61 2.61 0 0 0 2.61 2.61Zm10.55 0a2.61 2.61 0 1 0-2.61-2.61 2.61 2.61 0 0 0 2.61 2.61Zm10.56 0a2.61 2.61 0 1 0-2.62-2.61 2.61 2.61 0 0 0 2.62 2.61Zm10.55 0a2.61 2.61 0 1 0-2.61-2.61 2.61 2.61 0 0 0 2.61 2.61Zm10.55 0a2.61 2.61 0 1 0-2.61-2.61 2.61 2.61 0 0 0 2.61 2.61Zm10.56 0a2.61 2.61 0 1 0-2.61-2.61 2.61 2.61 0 0 0 2.61 2.61Zm10.55 0a2.61 2.61 0 1 0-2.61-2.61 2.61 2.61 0 0 0 2.61 2.61Zm21.1 0a2.61 2.61 0 1 0-2.61-2.61 2.61 2.61 0 0 0 2.61 2.61Zm63.35 0a2.61 2.61 0 1 0-2.61-2.61 2.61 2.61 0 0 0 2.61 2.61Zm10.52 0a2.61 2.61 0 1 0-2.61-2.61 2.61 2.61 0 0 0 2.61 2.61Zm31.66 0a2.61 2.61 0 1 0-2.61-2.61 2.61 2.61 0 0 0 2.61 2.61Zm10.55 0a2.61 2.61 0 1 0-2.61-2.61 2.61 2.61 0 0 0 2.61 2.61Zm10.55 0a2.61 2.61 0 1 0-2.61-2.61 2.61 2.61 0 0 0 2.61 2.61Zm31.66 0a2.61 2.61 0 1 0-2.61-2.61 2.61 2.61 0 0 0 2.61 2.61Zm10.55 0a2.61 2.61 0 1 0-2.61-2.61 2.61 2.61 0 0 0 2.61 2.61Zm10.56 0a2.61 2.61 0 1 0-2.61-2.61 2.61 2.61 0 0 0 2.61 2.61Zm10.55 0a2.61 2.61 0 1 0-2.61-2.61 2.61 2.61 0 0 0 2.61 2.61Zm73.87 0a2.61 2.61 0 1 0-2.61-2.61 2.61 2.61 0 0 0 2.61 2.61Zm10.53 0a2.61 2.61 0 1 0-2.61-2.61 2.61 2.61 0 0 0 2.61 2.61Zm10.57 0a2.61 2.61 0 1 0-2.61-2.61 2.61 2.61 0 0 0 2.61 2.61Zm10.56 0a2.61 2.61 0 1 0-2.61-2.61 2.61 2.61 0 0 0 2.61 2.61Zm10.55 0a2.61 2.61 0 1 0-2.61-2.61 2.61 2.61 0 0 0 2.61 2.61Zm-401 10.56a2.62 2.62 0 1 0-2.61-2.62 2.61 2.61 0 0 0 2.61 2.62Zm10.55 0a2.62 2.62 0 1 0-2.61-2.62 2.61 2.61 0 0 0 2.61 2.62Zm10.55 0a2.62 2.62 0 1 0-2.61-2.62 2.62 2.62 0 0 0 2.61 2.62Zm10.56 0a2.62 2.62 0 1 0-2.62-2.62 2.61 2.61 0 0 0 2.62 2.62Zm10.55 0a2.62 2.62 0 1 0-2.61-2.62 2.61 2.61 0 0 0 2.61 2.62Zm10.55 0a2.62 2.62 0 1 0-2.61-2.62 2.61 2.61 0 0 0 2.61 2.62Zm10.56 0a2.62 2.62 0 1 0-2.61-2.62 2.62 2.62 0 0 0 2.61 2.62Zm10.55 0a2.62 2.62 0 1 0-2.61-2.62 2.61 2.61 0 0 0 2.61 2.62Zm10.55 0a2.62 2.62 0 1 0-2.61-2.62 2.61 2.61 0 0 0 2.61 2.62Zm10.55 0a2.62 2.62 0 1 0-2.61-2.62 2.61 2.61 0 0 0 2.61 2.62Zm10.56 0a2.62 2.62 0 1 0-2.62-2.62 2.61 2.61 0 0 0 2.62 2.62Zm10.55 0a2.62 2.62 0 1 0-2.61-2.62 2.61 2.61 0 0 0 2.61 2.62Zm10.55 0a2.62 2.62 0 1 0-2.61-2.62 2.61 2.61 0 0 0 2.61 2.62Zm10.55 0a2.62 2.62 0 1 0-2.61-2.62 2.61 2.61 0 0 0 2.61 2.62Zm10.56 0a2.62 2.62 0 1 0-2.62-2.62 2.61 2.61 0 0 0 2.62 2.62Zm10.58 0a2.62 2.62 0 1 0-2.61-2.62 2.61 2.61 0 0 0 2.61 2.62Zm10.52 0a2.62 2.62 0 1 0-2.61-2.62 2.61 2.61 0 0 0 2.61 2.62Zm10.55 0a2.62 2.62 0 1 0-2.61-2.62 2.62 2.62 0 0 0 2.61 2.62Zm10.55 0a2.62 2.62 0 1 0-2.61-2.62 2.62 2.62 0 0 0 2.61 2.62Zm10.56 0a2.62 2.62 0 1 0-2.61-2.62 2.61 2.61 0 0 0 2.61 2.62Zm21.1 0a2.62 2.62 0 1 0-2.61-2.62 2.62 2.62 0 0 0 2.61 2.62Zm10.56 0a2.62 2.62 0 1 0-2.62-2.62 2.61 2.61 0 0 0 2.62 2.62Zm10.55 0a2.62 2.62 0 1 0-2.61-2.62 2.61 2.61 0 0 0 2.61 2.62Zm10.55 0a2.62 2.62 0 1 0-2.61-2.62 2.61 2.61 0 0 0 2.61 2.62Zm21.11 0a2.62 2.62 0 1 0-2.61-2.62 2.61 2.61 0 0 0 2.61 2.62Zm84.42 0a2.62 2.62 0 1 0-2.61-2.62 2.61 2.61 0 0 0 2.61 2.62Zm10.53 0a2.62 2.62 0 1 0-2.61-2.62 2.61 2.61 0 0 0 2.61 2.62Zm10.57 0a2.62 2.62 0 1 0-2.61-2.62 2.62 2.62 0 0 0 2.61 2.62Zm10.56 0a2.62 2.62 0 1 0-2.61-2.62 2.61 2.61 0 0 0 2.61 2.62Zm10.55 0a2.62 2.62 0 1 0-2.61-2.62 2.61 2.61 0 0 0 2.61 2.62ZM394.1 261.26a2.61 2.61 0 1 0-2.61-2.61 2.61 2.61 0 0 0 2.61 2.61Zm10.55 0a2.61 2.61 0 1 0-2.65-2.61 2.61 2.61 0 0 0 2.65 2.61Zm10.56 0a2.61 2.61 0 1 0-2.62-2.61 2.61 2.61 0 0 0 2.62 2.61Zm10.55 0a2.61 2.61 0 1 0-2.61-2.61 2.61 2.61 0 0 0 2.61 2.61Zm10.55 0a2.61 2.61 0 1 0-2.61-2.61 2.61 2.61 0 0 0 2.61 2.61Zm10.55 0a2.61 2.61 0 1 0-2.61-2.61 2.61 2.61 0 0 0 2.61 2.61Zm31.66 0a2.61 2.61 0 1 0-2.61-2.61 2.61 2.61 0 0 0 2.61 2.61Zm10.55 0a2.61 2.61 0 1 0-2.61-2.61 2.61 2.61 0 0 0 2.61 2.61Zm10.55 0a2.61 2.61 0 1 0-2.62-2.61 2.61 2.61 0 0 0 2.62 2.61Zm211.06 0a2.61 2.61 0 1 0-2.61-2.61 2.61 2.61 0 0 0 2.61 2.61Zm-284.92 10.55a2.61 2.61 0 1 0-2.61-2.61 2.61 2.61 0 0 0 2.61 2.61Zm10.55 0a2.61 2.61 0 1 0-2.61-2.61 2.61 2.61 0 0 0 2.61 2.61Zm10.55 0a2.61 2.61 0 1 0-2.61-2.61 2.61 2.61 0 0 0 2.61 2.61Zm10.56 0a2.61 2.61 0 1 0-2.62-2.61 2.61 2.61 0 0 0 2.62 2.61Zm21.1 0a2.61 2.61 0 1 0-2.61-2.61 2.61 2.61 0 0 0 2.61 2.61Zm10.55 0a2.61 2.61 0 1 0-2.61-2.61 2.61 2.61 0 0 0 2.61 2.61Zm10.55 0a2.61 2.61 0 1 0-2.61-2.61 2.61 2.61 0 0 0 2.61 2.61Zm-42.2 10.55a2.61 2.61 0 1 0-2.62-2.61 2.61 2.61 0 0 0 2.62 2.61Zm10.58 0a2.61 2.61 0 1 0-2.61-2.61 2.61 2.61 0 0 0 2.61 2.61Zm10.52 0a2.61 2.61 0 1 0-2.61-2.61 2.61 2.61 0 0 0 2.61 2.61Z" class="cls-2"/></svg>